<?xml version="1.0" encoding="UTF-8"?>
<svg id="svg835" xmlns="http://www.w3.org/2000/svg" xmlns:svg="http://www.w3.org/2000/svg" xmlns:sodipodi="http://sodipodi.sourceforge.net/DTD/sodipodi-0.dtd" xmlns:inkscape="http://www.inkscape.org/namespaces/inkscape" version="1.1" viewBox="0 0 120 100">
  <!-- Generator: Adobe Illustrator 30.0.0, SVG Export Plug-In . SVG Version: 2.1.1 Build 123)  -->
  <defs>
    <style>
      .st0 {
        stroke-width: .9px;
      }

      .st0, .st1 {
        fill: none;
        stroke: #1d1d1b;
        stroke-miterlimit: 10;
      }

      .st1 {
        stroke-width: 1.1px;
      }
    </style>
  </defs>
  <g id="Capa_1-2">
    <g>
      <path class="st0" d="M46.9,91.7l37.6-10.9s.6-61.2-1.2-60.8-40,5.3-40,5.3c0,0,3.7,66.3,3.7,66.3Z"/>
      <polygon class="st0" points="43.2 25.4 38.1 23.9 35.4 83.9 46.9 91.7 43.2 25.4"/>
      <polyline class="st0" points="38.8 23.9 71.2 19.2 83.2 20.1"/>
      <path class="st0" d="M55.1,23.9s-2.6-16.3,6.6-16.2,7.6,14.3,7.6,14.3"/>
      <path class="st0" d="M49.9,22.2s-2-15.4,5.7-15.6,8.1,13.6,8.1,13.6"/>
    </g>
    <g>
      <path class="st1" d="M46.9,91.7l37.6-10.9s.6-61.2-1.2-60.8-40,5.3-40,5.3c0,0,3.7,66.3,3.7,66.3Z"/>
      <polygon class="st1" points="43.2 25.4 38.1 23.9 35.4 83.9 46.9 91.7 43.2 25.4"/>
      <polyline class="st1" points="38.8 23.9 71.2 19.2 83.2 20.1"/>
      <path class="st1" d="M55.1,23.9s-2.6-16.3,6.6-16.2,7.6,14.3,7.6,14.3"/>
      <path class="st1" d="M49.9,22.2s-2-15.4,5.7-15.6,8.1,13.6,8.1,13.6"/>
    </g>
  </g>
</svg>